<?xml version="1.0" standalone="no"?><!DOCTYPE svg PUBLIC "-//W3C//DTD SVG 1.1//EN" "http://www.w3.org/Graphics/SVG/1.1/DTD/svg11.dtd"><svg t="1709706174476" class="icon" viewBox="0 0 1024 1024" version="1.1" xmlns="http://www.w3.org/2000/svg" p-id="965" xmlns:xlink="http://www.w3.org/1999/xlink" width="200" height="200"><path d="M524.407467 614.4m204.8 0l9.301333 0q204.8 0 204.8 204.8l0 0q0 204.8-204.8 204.8l-9.301333 0q-204.8 0-204.8-204.8l0 0q0-204.8 204.8-204.8Z" fill="#E6EFFF" p-id="966"></path><path d="M695.415467 0c73.437867 0 133.7344 58.248533 136.533333 131.908267l0.1024 5.239466v318.9248h-7.4752c73.437867 0 133.7344 58.248533 136.533333 131.908267l0.1024 5.239467v259.498666c0 73.710933-58.026667 134.229333-131.413333 137.045334l-5.2224 0.1024H196.369067c-73.4208 0-133.7344-58.248533-136.533334-131.908267L59.733333 852.718933V137.147733C59.733333 63.4368 117.76 2.9184 191.146667 0.1024L196.369067 0h499.029333z m136.635733 685.738667a41.6768 41.6768 0 0 1-39.867733 41.693866 41.642667 41.642667 0 0 1-43.1616-38.2464l-0.136534-3.4304V137.147733A53.589333 53.589333 0 0 0 699.050667 83.626667l-3.652267-0.119467H196.386133A53.5552 53.5552 0 0 0 143.018667 133.461333l-0.119467 3.669334v715.5712A53.589333 53.589333 0 0 0 192.7168 906.24l3.652267 0.119467h630.613333a53.5552 53.5552 0 0 0 53.3504-49.988267l0.119467-3.669333V598.9888a53.589333 53.589333 0 0 0-49.800534-53.5552l-3.652266-0.119467h5.051733v140.4416z" fill="#000000" p-id="967"></path><path d="M441.719467 344.968533v132.164267h135.4752c19.490133 0 45.7728 9.233067 45.568 37.905067l0.2048 3.669333C622.762667 550.4 598.050133 563.2 577.194667 563.2H399.701333c-0.853333 0-1.6896 0-2.4576-0.068267l-1.809066 0.068267a31.573333 31.573333 0 0 1-23.1936-10.496 31.6416 31.6416 0 0 1-10.376534-24.951467l-0.034133-2.4576V344.968533c0-20.8896 17.271467-39.714133 41.7792-39.714133 28.0576 0 38.126933 18.824533 38.126933 39.714133z" fill="#4686F5" p-id="968"></path></svg>